Coordinates
version=1
nRows=25
nColumns=28
inDegrees=yes

Units are S.I. units (second, meters, Newtons, ...)
Angles are in degrees.

endheader
time	pelvis_tilt	pelvis_list	pelvis_rotation	pelvis_tx	pelvis_ty	pelvis_tz	hip_flexion_r	hip_adduction_r	hip_rotation_r	knee_angle_r	ankle_angle_r	subtalar_angle_r	mtp_angle_r	hip_flexion_l	hip_adduction_l	hip_rotation_l	knee_angle_l	socket_flexion	socket_adduction	socket_rotation	socket_tx	socket_ty	socket_tz	foot_flex	lumbar_extension	lumbar_bending	lumbar_rotation
      0.00000000	      0.19296102	    -11.08037068	    -13.02910421	     -0.85987402	      0.98839520	      0.33796928	    -23.54070628	     10.43272305	     16.07538160	     -9.58331897	      7.51070603	    -13.66928033	     19.29719931	     25.40175183	    -16.04725968	      8.77737070	     -6.36659485	      0.00000000	      0.00000000	      0.00000000	      0.00000000	     -0.00174847	      0.00000000	      2.57134321	    -13.84788172	      7.57936643	     20.69878188
      0.00416667	      0.12012235	    -11.13056806	    -12.96807273	     -0.85478949	      0.98767082	      0.33740779	    -23.64730058	     10.44593211	     16.13024178	     -9.75193849	      7.46435105	    -13.65529995	     19.30091851	     25.27645171	    -15.99947279	      8.78184187	     -6.38705910	      0.00000000	      0.00000000	      0.00000000	      0.00000000	     -0.00196074	      0.00000000	      2.47503973	    -13.71411927	      7.65118853	     20.70948695
      0.00833333	      0.00376202	    -11.29333840	    -13.01618280	     -0.84937296	      0.98685414	      0.33690717	    -23.66916807	     10.53436073	     16.13939162	    -10.10478685	      7.23032469	    -13.62950358	     19.30218019	     25.04760061	    -16.13276579	      8.79389657	     -6.20510916	      0.00000000	      0.00000000	      0.00000000	      0.00000000	     -0.00264091	      0.00000000	      2.03690723	    -13.57968531	      7.85967266	     20.73163482
      0.01250000	     -0.11880858	    -11.47015853	    -13.08068275	     -0.84390229	      0.98606101	      0.33638308	    -23.66359186	     10.64194993	     16.20718545	    -10.51297026	      6.94279497	    -13.59256239	     19.33532018	     24.86990319	    -16.27194059	      8.75795849	     -6.15177516	      0.00000000	      0.00000000	      0.00000000	      0.00000000	     -0.00323015	      0.00000000	      1.75837979	    -13.46629136	      8.10054231	     20.78843841
      0.01666667	     -0.24421461	    -11.60011946	    -13.11868440	     -0.83820082	      0.98524232	      0.33584124	    -23.67392835	     10.70442167	     16.26446264	    -10.86803101	      6.72243730	    -13.57853433	     19.37145490	     24.68029151	    -16.35407502	      8.76996205	     -6.07319993	      0.00000000	      0.00000000	      0.00000000	      0.00000000	     -0.00382664	      0.00000000	      1.48536655	    -13.30334418	      8.27463875	     20.83050002
      0.02083333	     -0.32711481	    -11.65261083	    -13.04810009	     -0.83227840	      0.98443779	      0.33515204	    -23.76696512	     10.71372607	     16.33348804	    -11.11627082	      6.63593077	    -13.56642895	     19.37880734	     24.51593016	    -16.28976675	      8.77363705	     -6.09745753	      0.00000000	      0.00000000	      0.00000000	      0.00000000	     -0.00433158	      0.00000000	      1.38652650	    -13.12774355	      8.36922803	     20.83996913
      0.02500000	     -0.50193212	    -11.82726904	    -13.17361521	     -0.82640564	      0.98362277	      0.33461457	    -23.64054025	     10.80316580	     16.35464256	    -11.67758269	      6.18343687	    -13.55036599	     19.43098345	     24.31400183	    -16.45834414	      8.75255356	     -5.96847587	      0.00000000	      0.00000000	      0.00000000	      0.00000000	     -0.00511449	      0.00000000	      0.93171573	    -12.96263613	      8.60992973	     20.87993420
      0.02916667	     -0.58994536	    -11.86984806	    -13.10819405	     -0.82022110	      0.98281677	      0.33392474	    -23.72061011	     10.79618106	     16.43308147	    -11.94434588	      6.08317105	    -13.53777533	     19.44171385	     24.13122521	    -16.38960379	      8.79013151	     -5.99018834	      0.00000000	      0.00000000	      0.00000000	      0.00000000	     -0.00574192	      0.00000000	      0.82968236	    -12.77234339	      8.69238972	     20.88622389
      0.03333333	     -0.73498482	    -11.96257910	    -13.18505253	     -0.81413822	      0.98207998	      0.33343469	    -23.60119228	     10.82994210	     16.45467539	    -12.52276090	      5.64843871	    -13.52283740	     19.46401720	     23.88193422	    -16.46224352	      8.86376334	     -5.82954548	      0.00000000	      0.00000000	      0.00000000	      0.00000000	     -0.00649789	      0.00000000	      0.35576665	    -12.58684077	      8.82418726	     20.87808005
      0.03750000	     -0.89970457	    -12.04780881	    -13.23915632	     -0.80793718	      0.98132322	      0.33276143	    -23.48015175	     10.84974789	     16.45886437	    -13.03502797	      5.19303736	    -13.51567166	     19.55227086	     23.73364721	    -16.48815799	      8.82730302	     -5.84325311	      0.00000000	      0.00000000	      0.00000000	      0.00000000	     -0.00729023	      0.00000000	      0.08409602	    -12.35782637	      8.98646063	     20.89774782
      0.04166667	     -0.97981927	    -12.06966119	    -13.15341114	     -0.80154031	      0.98062728	      0.33199426	    -23.52534843	     10.82885968	     16.55762487	    -13.36757389	      5.04662636	    -13.49931691	     19.57203482	     23.53378461	    -16.38612203	      8.88378424	     -5.87591194	      0.00000000	      0.00000000	      0.00000000	      0.00000000	     -0.00804047	      0.00000000	     -0.03156988	    -12.14656815	      9.05494708	     20.89644416
      0.04583333	     -1.61106788	    -12.04978242	    -13.29460737	     -0.79514455	      0.97926546	      0.33142875	    -22.75537285	     10.85734929	     16.34510440	    -14.11353814	      3.88334999	    -13.70934869	     22.06042294	     23.88980150	    -16.41391552	      9.00928367	     -5.89894848	      0.00000000	      0.00000000	      0.00000000	      0.00000000	     -0.00885016	      0.00000000	     -0.43088010	    -11.34934157	      9.21998379	     20.86569207
      0.05000000	     -1.62967880	    -12.03193261	    -13.24481123	     -0.78888449	      0.97882781	      0.33069084	    -22.72768258	     10.78979828	     16.36180665	    -14.65161162	      3.52035529	    -13.67546519	     22.08472223	     23.61032144	    -16.28342067	      9.05106344	     -5.91926629	      0.00000000	      0.00000000	      0.00000000	      0.00000000	     -0.00955302	      0.00000000	     -0.67846342	    -11.24371131	      9.20850102	     20.81008999
      0.05416667	     -1.66998847	    -12.03994326	    -13.15102567	     -0.78232136	      0.97829759	      0.32986598	    -22.80340811	     10.73955142	     16.44958091	    -14.96784330	      3.39782438	    -13.65442637	     22.08651287	     23.38508698	    -16.15613665	      9.09871334	     -6.03122322	      0.00000000	      0.00000000	      0.00000000	      0.00000000	     -0.01043070	      0.00000000	     -0.76445751	    -11.03586378	      9.26251002	     20.79718941
      0.05833333	     -1.72324868	    -11.84765122	    -13.18251692	     -0.77607341	      0.97797362	      0.32929225	    -22.48850361	     10.49115018	     16.09687855	    -15.85493487	      2.44900901	    -13.57718310	     22.24878880	     23.11144768	    -15.89868855	      8.98068845	     -6.01560186	      0.00000000	      0.00000000	      0.00000000	      0.00000000	     -0.01100822	      0.00000000	     -1.12744675	    -10.87817653	      9.04980580	     20.61928028
      0.06250000	     -1.75971910	    -11.75734122	    -13.12296903	     -0.76974389	      0.97762534	      0.32852656	    -22.34524645	     10.36458698	     16.01722368	    -16.50351140	      1.99092280	    -13.52306956	     22.36863582	     22.88667169	    -15.69846286	      9.00165932	     -6.10522768	      0.00000000	      0.00000000	      0.00000000	      0.00000000	     -0.01173353	      0.00000000	     -1.39229299	    -10.71170161	      8.97064370	     20.51706570
      0.06666667	     -1.78412963	    -11.74358132	    -12.99073069	     -0.76307801	      0.97728229	      0.32767400	    -22.39727866	     10.32152528	     16.13157307	    -16.84908888	      1.86517205	    -13.49333410	     22.38001884	     22.65912799	    -15.53931478	      9.05302552	     -6.24513930	      0.00000000	      0.00000000	      0.00000000	      0.00000000	     -0.01264557	      0.00000000	     -1.45589333	    -10.49118995	      9.00468505	     20.50047123
      0.07083333	     -1.84615002	    -11.35977574	    -12.97243523	     -0.75687328	      0.97708860	      0.32706749	    -21.88576451	      9.91793487	     15.53848477	    -17.93764023	      0.78048687	    -13.34990593	     22.69555235	     22.48283485	    -15.06865598	      8.89705767	     -6.33880161	      0.00000000	      0.00000000	      0.00000000	      0.00000000	     -0.01291675	      0.00000000	     -1.72759181	    -10.27250410	      8.55810078	     20.21282157
      0.07500000	     -2.05151312	    -10.91632655	    -12.67505047	     -0.75028472	      0.97632582	      0.32583894	    -21.20109954	      9.47359439	     14.28194486	    -18.94313262	      0.02634979	    -12.04750599	     26.88741275	     22.63345341	    -14.41625933	      9.05273176	     -6.58948595	      0.00000000	      0.00000000	      0.00000000	      0.00000000	     -0.01337579	      0.00000000	     -1.89926511	     -9.75905584	      8.19496785	     19.66043396
      0.07916667	     -1.99807326	    -10.66605123	    -12.60843850	     -0.74398389	      0.97641111	      0.32514818	    -21.01016137	      9.19017796	     14.16009276	    -19.71110300	     -0.74804274	    -12.25281544	     27.04904625	     22.34916129	    -14.04779771	      8.90633689	     -6.75136081	      0.00000000	      0.00000000	      0.00000000	      0.00000000	     -0.01382555	      0.00000000	     -2.03932626	     -9.65453874	      7.88534192	     19.59144300
      0.08333333	     -1.95030711	    -10.53962683	    -12.49026633	     -0.73789111	      0.97646865	      0.32434142	    -20.83279346	      9.07891967	     14.23867050	    -20.50664161	     -1.22213369	    -12.24396052	     27.06228682	     22.11549696	    -13.79250077	      8.97256337	     -6.97039388	      0.00000000	      0.00000000	      0.00000000	      0.00000000	     -0.01439115	      0.00000000	     -2.19037788	     -9.60708876	      7.71160153	     19.49636650
      0.08750000	     -1.88902297	    -10.31620045	    -12.40261512	     -0.73186080	      0.97666641	      0.32354533	    -20.52783661	      8.84906489	     14.07191577	    -21.48071564	     -1.93153547	    -12.24895060	     27.06021493	     21.88135857	    -13.44230489	      8.89693649	     -7.21059089	      0.00000000	      0.00000000	      0.00000000	      0.00000000	     -0.01474601	      0.00000000	     -2.32094662	     -9.56370875	      7.43300576	     19.33895312
      0.09166667	     -1.90838189	     -9.69609534	    -12.12973500	     -0.72508122	      0.97656345	      0.32261808	    -19.98856488	      8.20640544	     12.98127710	    -22.52494847	     -2.75784027	    -11.80919561	     28.01300273	     21.77219529	    -12.62123335	      8.66292189	     -7.39917941	      0.00000000	      0.00000000	      0.00000000	      0.00000000	     -0.01485923	      0.00000000	     -2.37284862	     -9.18755380	      6.76690413	     18.88239413
      0.09583333	     -1.83765910	     -9.44910108	    -12.02108795	     -0.71899901	      0.97680516	      0.32185624	    -19.61230504	      7.95017891	     12.64701547	    -23.59962243	     -3.53559475	    -11.69551271	     28.21631258	     21.54935487	    -12.24363326	      8.49998808	     -7.68612663	      0.00000000	      0.00000000	      0.00000000	      0.00000000	     -0.01527090	      0.00000000	     -2.45354188	     -9.11980314	      6.44139669	     18.68677883
      0.10000000	     -1.84928560	     -8.84481923	    -11.71655460	     -0.71266294	      0.97673634	      0.32056655	    -18.99116663	      7.27753678	     11.56738271	    -24.70110973	     -4.83543158	    -11.16631704	     33.04458508	     21.52033604	    -11.40562570	      8.49072888	     -8.00111153	      0.00000000	      0.00000000	      0.00000000	      0.00000000	     -0.01527343	      0.00000000	     -2.51337142	     -8.84865069	      5.84372877	     18.24299347
